# xmcd CD database file
#
# Track frame offsets:
#	150
#	30137
#	53801
#	73210
#	103709
#	126240
#	147032
#	158606
#	185830
#	206379
#	234253
#	256477
#	279261
#
# Disc length: 4222 seconds
#
# Revision: 1
# Processed by: cddbd v1.5.2PL0 Copyright (c) Steve Scherf et al.
# Submitted via: CDex 1.77
#
DISCID=b0107c0d
DTITLE=Sade - Lovers Live
DYEAR=2002
DGENRE=Jazz
TTITLE0=Cherish The Day 
TTITLE1=Somebody Already Broke My Heart
TTITLE2=Smooth Operator
TTITLE3=Jezebel
TTITLE4=Kiss Of Life
TTITLE5=Slave Song 
TTITLE6=The Sweetest Gift
TTITLE7=The Sweetest Taboo
TTITLE8=Paradise
TTITLE9=No Ordinary Love
TTITLE10=By Your Side
TTITLE11=Flow
TTITLE12=Is It A Crime
EXTD=YEAR: 2002
EXTT0=
EXTT1=
EXTT2=
EXTT3=
EXTT4=
EXTT5=
EXTT6=
EXTT7=
EXTT8=
EXTT9=
EXTT10=
EXTT11=
EXTT12=
PLAYORDER=
